<svg width="102" height="65" viewBox="0 0 102 65" fill="none" xmlns="http://www.w3.org/2000/svg">
<rect x="101" y="45" width="100" height="44" rx="6" transform="rotate(180 101 45)" stroke="#3E93CC" stroke-width="1.5"/>
<path d="M40 45L40 54C40 57.3137 42.6863 60 46 60L56 60C59.3137 60 62 57.3137 62 54L62 45" stroke="#3E93CC" stroke-width="1.5"/>
<path d="M62 45L62 52.5C62 53.8807 63.1193 55 64.5 55V55C65.8807 55 67 53.8807 67 52.5L67 45" stroke="#3E93CC" stroke-width="1.5"/>
<path d="M35 45L35 52.5C35 53.8807 36.1193 55 37.5 55V55C38.8807 55 40 53.8807 40 52.5L40 45" stroke="#3E93CC" stroke-width="1.5"/>
<rect x="42" y="59" width="18" height="5" rx="2.5" fill="white" stroke="#3E93CC" stroke-width="1.5"/>
</svg>
