<svg width="102" height="65" viewBox="0 0 102 65" fill="none" xmlns="http://www.w3.org/2000/svg">
<rect x="1" y="20" width="100" height="44" rx="6" stroke="#BFBFBF" stroke-width="1.5"/>
<path d="M62 19.9999L62 10.9999C62 7.68617 59.3137 4.99988 56 4.99988L46 4.99988C42.6863 4.99988 40 7.68617 40 10.9999L40 19.9999" stroke="#BFBFBF" stroke-width="1.5"/>
<path d="M40 19.9999L40 12.4999C40 11.1192 38.8807 9.99988 37.5 9.99988V9.99988C36.1193 9.99988 35 11.1192 35 12.4999L35 19.9999" stroke="#BFBFBF" stroke-width="1.5"/>
<path d="M67 19.9999L67 12.4999C67 11.1192 65.8807 9.99988 64.5 9.99988V9.99988C63.1193 9.99988 62 11.1192 62 12.4999L62 19.9999" stroke="#BFBFBF" stroke-width="1.5"/>
<rect x="60" y="5.99988" width="18" height="5" rx="2.5" transform="rotate(-180 60 5.99988)" fill="white" stroke="#BFBFBF" stroke-width="1.5"/>
</svg>
