<svg width="102" height="65" viewBox="0 0 102 65" fill="none" xmlns="http://www.w3.org/2000/svg">
<rect x="1" y="20.0001" width="100" height="44" rx="6" stroke="#3E93CC" stroke-width="1.5"/>
<path d="M62 20L62 11C62 7.68629 59.3137 5 56 5L46 5C42.6863 5 40 7.68629 40 11L40 20" stroke="#3E93CC" stroke-width="1.5"/>
<path d="M40 20L40 12.5C40 11.1193 38.8807 10 37.5 10V10C36.1193 10 35 11.1193 35 12.5L35 20" stroke="#3E93CC" stroke-width="1.5"/>
<path d="M67 20L67 12.5C67 11.1193 65.8807 10 64.5 10V10C63.1193 10 62 11.1193 62 12.5L62 20" stroke="#3E93CC" stroke-width="1.5"/>
<rect x="60" y="6" width="18" height="5" rx="2.5" transform="rotate(-180 60 6)" fill="white" stroke="#3E93CC" stroke-width="1.5"/>
</svg>
