<svg width="169" height="261" viewBox="0 0 169 261" fill="none" xmlns="http://www.w3.org/2000/svg">
<rect width="61" height="89" transform="matrix(-1 0 0 1 91 171)" stroke="#D9D9D9" stroke-width="2"/>
<rect width="11" height="11" transform="matrix(-1 0 0 1 21 235)" stroke="#D9D9D9" stroke-width="2"/>
<rect width="11" height="11" transform="matrix(-1 0 0 1 21 210)" stroke="#D9D9D9" stroke-width="2"/>
<rect width="11" height="11" transform="matrix(-1 0 0 1 21 185)" stroke="#D9D9D9" stroke-width="2"/>
<rect width="11" height="11" transform="matrix(-1 0 0 1 111 235)" stroke="#D9D9D9" stroke-width="2"/>
<rect width="11" height="11" transform="matrix(-1 0 0 1 111 210)" stroke="#D9D9D9" stroke-width="2"/>
<rect width="11" height="11" transform="matrix(-1 0 0 1 111 185)" stroke="#D9D9D9" stroke-width="2"/>
<rect width="46" height="90" transform="matrix(-4.37114e-08 1 1 4.37114e-08 1 104)" stroke="#D9D9D9" stroke-width="2"/>
<rect width="30" height="84" transform="matrix(-4.37114e-08 1 1 4.37114e-08 84 1)" stroke="#D9D9D9" stroke-width="2"/>
<rect width="30" height="119" transform="matrix(-1 -8.74228e-08 -8.74228e-08 1 168 31)" stroke="#D9D9D9" stroke-width="2"/>
<rect width="23" height="20" transform="matrix(-1 -9.71364e-08 -7.86805e-08 1 168 74)" stroke="#D9D9D9" stroke-width="2"/>
<rect width="23" height="20" transform="matrix(-1 -8.74228e-08 -8.74228e-08 1 168 54)" stroke="#D9D9D9" stroke-width="2"/>
<rect width="30" height="33" transform="matrix(-1 -8.74228e-08 -8.74228e-08 1 168 161)" stroke="#D9D9D9" stroke-width="2"/>
</svg>
