<svg width="119" height="148" viewBox="0 0 119 148" fill="none" xmlns="http://www.w3.org/2000/svg">
<path d="M111 34L111 13C111 10.2386 108.761 8 106 8L19 8C12.9249 8 8 12.9249 8 19L8 29C8 31.7614 10.2386 34 13 34L111 34Z" stroke="#BFBFBF" stroke-width="1.5"/>
<path d="M111 114L111 135C111 137.761 108.761 140 106 140L19 140C12.9249 140 8 135.075 8 129L8 119C8 116.239 10.2386 114 13 114L111 114Z" stroke="#BFBFBF" stroke-width="1.5"/>
<path d="M111 103L111 45L16 45C11.5817 45 8 48.5817 8 53L8 95C8 99.4183 11.5817 103 16 103L111 103Z" stroke="#BFBFBF" stroke-width="1.5"/>
<path d="M111 93L111 55L105 55L105 93L111 93Z" stroke="#BFBFBF" stroke-width="1.5"/>
<path d="M16 1L111 1C114.866 1 118 4.13401 118 8L118 23.5L118 114L118 140C118 143.866 114.866 147 111 147H16C7.71573 147 1 140.284 1 132V120C1 116.686 3.68629 114 6.99999 114L111 114V34H7C3.68629 34 1 31.3137 1 28V16C1 7.71573 7.71573 1 16 1Z" stroke="#BFBFBF" stroke-width="1.5"/>
</svg>
