<svg width="79" height="65" viewBox="0 0 79 65" fill="none" xmlns="http://www.w3.org/2000/svg">
<rect x="1" y="20" width="77" height="44" rx="10" stroke="#BFBFBF" stroke-width="1.5"/>
<path d="M54.625 20L54.625 11C54.625 7.68629 51.9387 5 48.625 5L30.375 5C27.0613 5 24.375 7.68629 24.375 11L24.375 20" stroke="#BFBFBF" stroke-width="1.5"/>
<path d="M24.375 20L24.375 13.4375C24.375 11.539 22.836 10 20.9375 10V10C19.039 10 17.5 11.539 17.5 13.4375L17.5 20" stroke="#BFBFBF" stroke-width="1.5"/>
<path d="M61.5 20L61.5 13.4375C61.5 11.539 59.961 10 58.0625 10V10C56.164 10 54.625 11.539 54.625 13.4375L54.625 20" stroke="#BFBFBF" stroke-width="1.5"/>
<rect x="51.875" y="6" width="24.75" height="5" rx="2.5" transform="rotate(-180 51.875 6)" fill="white" stroke="#BFBFBF" stroke-width="1.5"/>
</svg>
