<svg width="124" height="210" viewBox="0 0 124 210" fill="none" xmlns="http://www.w3.org/2000/svg">
<rect x="1" y="1" width="122" height="47" stroke="#D9D9D9" stroke-width="2"/>
<rect x="1" y="162" width="122" height="47" stroke="#D9D9D9" stroke-width="2"/>
<rect x="67" y="151" width="56" height="11" stroke="#D9D9D9" stroke-width="2"/>
<rect x="67" y="139" width="56" height="12" stroke="#D9D9D9" stroke-width="2"/>
<rect x="67" y="128" width="56" height="11" stroke="#D9D9D9" stroke-width="2"/>
<rect x="67" y="116" width="56" height="12" stroke="#D9D9D9" stroke-width="2"/>
<rect x="67" y="105" width="56" height="11" stroke="#D9D9D9" stroke-width="2"/>
<rect x="67" y="94" width="56" height="11" stroke="#D9D9D9" stroke-width="2"/>
<rect x="67" y="82" width="56" height="12" stroke="#D9D9D9" stroke-width="2"/>
<rect x="67" y="71" width="56" height="11" stroke="#D9D9D9" stroke-width="2"/>
<rect x="67" y="59" width="56" height="12" stroke="#D9D9D9" stroke-width="2"/>
<rect x="67" y="48" width="56" height="11" stroke="#D9D9D9" stroke-width="2"/>
<rect x="1" y="151" width="56" height="11" stroke="#D9D9D9" stroke-width="2"/>
<rect x="1" y="139" width="56" height="12" stroke="#D9D9D9" stroke-width="2"/>
<rect x="1" y="128" width="56" height="11" stroke="#D9D9D9" stroke-width="2"/>
<rect x="1" y="116" width="56" height="12" stroke="#D9D9D9" stroke-width="2"/>
<rect x="1" y="105" width="56" height="11" stroke="#D9D9D9" stroke-width="2"/>
<rect x="1" y="94" width="56" height="11" stroke="#D9D9D9" stroke-width="2"/>
<rect x="1" y="82" width="56" height="12" stroke="#D9D9D9" stroke-width="2"/>
<rect x="1" y="71" width="56" height="11" stroke="#D9D9D9" stroke-width="2"/>
<rect x="1" y="59" width="56" height="12" stroke="#D9D9D9" stroke-width="2"/>
<rect x="1" y="48" width="56" height="11" stroke="#D9D9D9" stroke-width="2"/>
</svg>
