<svg width="314" height="234" viewBox="0 0 314 234" fill="none" xmlns="http://www.w3.org/2000/svg">
<rect width="312" height="232" transform="matrix(-1 0 0 1 313 1)" stroke="#D9D9D9" stroke-width="2"/>
<rect x="179" y="13" width="122" height="47" stroke="#D9D9D9" stroke-width="2"/>
<rect x="179" y="174" width="122" height="47" stroke="#D9D9D9" stroke-width="2"/>
<rect x="245" y="163" width="56" height="11" stroke="#D9D9D9" stroke-width="2"/>
<rect x="245" y="151" width="56" height="12" stroke="#D9D9D9" stroke-width="2"/>
<rect x="245" y="140" width="56" height="11" stroke="#D9D9D9" stroke-width="2"/>
<rect x="245" y="128" width="56" height="12" stroke="#D9D9D9" stroke-width="2"/>
<rect x="245" y="117" width="56" height="11" stroke="#D9D9D9" stroke-width="2"/>
<rect x="245" y="106" width="56" height="11" stroke="#D9D9D9" stroke-width="2"/>
<rect x="245" y="94" width="56" height="12" stroke="#D9D9D9" stroke-width="2"/>
<rect x="245" y="83" width="56" height="11" stroke="#D9D9D9" stroke-width="2"/>
<rect x="245" y="71" width="56" height="12" stroke="#D9D9D9" stroke-width="2"/>
<rect x="245" y="60" width="56" height="11" stroke="#D9D9D9" stroke-width="2"/>
<rect x="179" y="163" width="56" height="11" stroke="#D9D9D9" stroke-width="2"/>
<rect x="179" y="151" width="56" height="12" stroke="#D9D9D9" stroke-width="2"/>
<rect x="179" y="140" width="56" height="11" stroke="#D9D9D9" stroke-width="2"/>
<rect x="179" y="128" width="56" height="12" stroke="#D9D9D9" stroke-width="2"/>
<rect x="179" y="117" width="56" height="11" stroke="#D9D9D9" stroke-width="2"/>
<rect x="179" y="106" width="56" height="11" stroke="#D9D9D9" stroke-width="2"/>
<rect x="179" y="94" width="56" height="12" stroke="#D9D9D9" stroke-width="2"/>
<rect x="179" y="83" width="56" height="11" stroke="#D9D9D9" stroke-width="2"/>
<rect x="179" y="71" width="56" height="12" stroke="#D9D9D9" stroke-width="2"/>
<rect x="179" y="60" width="56" height="11" stroke="#D9D9D9" stroke-width="2"/>
</svg>
