<svg width="119" height="148" viewBox="0 0 119 148" fill="none" xmlns="http://www.w3.org/2000/svg">
<path d="M8 34L8 13C8 10.2386 10.2386 8 13 8L100 8C106.075 8 111 12.9249 111 19L111 29C111 31.7614 108.761 34 106 34L8 34Z" stroke="#BFBFBF" stroke-width="1.5"/>
<path d="M8 114L8 135C8 137.761 10.2386 140 13 140L100 140C106.075 140 111 135.075 111 129L111 119C111 116.239 108.761 114 106 114L8 114Z" stroke="#BFBFBF" stroke-width="1.5"/>
<path d="M8 103L8 45L103 45C107.418 45 111 48.5817 111 53L111 95C111 99.4183 107.418 103 103 103L8 103Z" stroke="#BFBFBF" stroke-width="1.5"/>
<path d="M8 93L8 55L14 55L14 93L8 93Z" stroke="#BFBFBF" stroke-width="1.5"/>
<path d="M103 1L8 1C4.13401 1 1 4.13401 1 8L1 23.5L1 114L1 140C1 143.866 4.13401 147 8 147H103C111.284 147 118 140.284 118 132V120C118 116.686 115.314 114 112 114L8.00001 114V34H112C115.314 34 118 31.3137 118 28V16C118 7.71573 111.284 1 103 1Z" stroke="#BFBFBF" stroke-width="1.5"/>
</svg>
