<svg width="65" height="70" viewBox="0 0 65 70" fill="none" xmlns="http://www.w3.org/2000/svg">
<path d="M45 46L54 46C57.3137 46 60 43.3137 60 40L60 30C60 26.6863 57.3137 24 54 24L45 24" stroke="#BFBFBF" stroke-width="1.5"/>
<path d="M45 24L52.5 24C53.8807 24 55 22.8807 55 21.5V21.5C55 20.1193 53.8807 19 52.5 19L45 19" stroke="#BFBFBF" stroke-width="1.5"/>
<path d="M45 51L52.5 51C53.8807 51 55 49.8807 55 48.5V48.5C55 47.1193 53.8807 46 52.5 46L45 46" stroke="#BFBFBF" stroke-width="1.5"/>
<rect x="59" y="44" width="18" height="5" rx="2.5" transform="rotate(-90 59 44)" fill="white" stroke="#BFBFBF" stroke-width="1.5"/>
<rect x="1" y="69" width="68" height="44" rx="6" transform="rotate(-90 1 69)" stroke="#BFBFBF" stroke-width="1.5"/>
</svg>
