<svg width="58" height="65" viewBox="0 0 58 65" fill="none" xmlns="http://www.w3.org/2000/svg">
<rect x="1" y="20" width="56" height="44" rx="10" stroke="#3E93CC" stroke-width="1.5"/>
<path d="M40 20L40 11C40 7.68629 37.3137 5 34 5L24 5C20.6863 5 18 7.68629 18 11L18 20" stroke="#3E93CC" stroke-width="1.5"/>
<path d="M18 20L18 12.5C18 11.1193 16.8807 10 15.5 10V10C14.1193 10 13 11.1193 13 12.5L13 20" stroke="#3E93CC" stroke-width="1.5"/>
<path d="M45 20L45 12.5C45 11.1193 43.8807 10 42.5 10V10C41.1193 10 40 11.1193 40 12.5L40 20" stroke="#3E93CC" stroke-width="1.5"/>
<rect x="38" y="6" width="18" height="5" rx="2.5" transform="rotate(-180 38 6)" fill="white" stroke="#3E93CC" stroke-width="1.5"/>
</svg>
