<svg width="58" height="65" viewBox="0 0 58 65" fill="none" xmlns="http://www.w3.org/2000/svg">
<rect x="57" y="45" width="56" height="44" rx="10" transform="rotate(-180 57 45)" stroke="#BFBFBF" stroke-width="1.5"/>
<path d="M18 45L18 54C18 57.3137 20.6863 60 24 60L34 60C37.3137 60 40 57.3137 40 54L40 45" stroke="#BFBFBF" stroke-width="1.5"/>
<path d="M40 45L40 52.5C40 53.8807 41.1193 55 42.5 55V55C43.8807 55 45 53.8807 45 52.5L45 45" stroke="#BFBFBF" stroke-width="1.5"/>
<path d="M13 45L13 52.5C13 53.8807 14.1193 55 15.5 55V55C16.8807 55 18 53.8807 18 52.5L18 45" stroke="#BFBFBF" stroke-width="1.5"/>
<rect x="20" y="59" width="18" height="5" rx="2.5" fill="white" stroke="#BFBFBF" stroke-width="1.5"/>
</svg>
